<?xml version="1.0" encoding="utf-8"?>
<!-- Generator: Adobe Illustrator 21.0.0, SVG Export Plug-In . SVG Version: 6.00 Build 0)  -->
<svg version="1.1" id="Layer_1" xmlns="http://www.w3.org/2000/svg" xmlns:xlink="http://www.w3.org/1999/xlink" x="0px" y="0px"
	 viewBox="0 0 456.3 102.8" style="enable-background:new 0 0 456.3 102.8;" xml:space="preserve">
<style type="text/css">
	.st0{fill:#8F9195;}
	.st1{fill:#34383C;}
	.st2{fill:#0682B4;}
	.st3{fill:#31B7E9;}
	.st4{fill:none;}
</style>
<g>
	<path class="st0" d="M113.9,72.6h1.5l3,13l4.5-13h1l4.6,12.8l3.2-12.8h1.4l-3.7,14.8h-1.5l-4.5-12.7L119,87.4h-1.6L113.9,72.6z
		 M144.7,79h9.6c0-3.4-1.6-5.2-4.5-5.2C146.5,73.9,144.8,75.6,144.7,79 M149.8,72.6c3.9,0,5.9,2.2,5.9,6.6c0,0.3,0,0.6,0,1h-10.9
		c0,3.8,1.9,5.8,5.9,5.8c1.6,0,3.1-0.2,4.3-0.6v1.3c-1.3,0.4-2.7,0.6-4.3,0.6c-4.8,0-7.5-2.5-7.5-7.7
		C143.3,74.9,145.5,72.6,149.8,72.6 M168.5,85.8c1.5,0.2,2.8,0.4,3.9,0.4c3.7,0,5.5-2.1,5.5-6.4c0-3.7-1.7-5.5-5.1-5.5
		c-1.4,0-2.8,0.2-4.4,0.7L168.5,85.8z M167.1,67.4h1.5v6.1c1.7-0.4,3.2-0.6,4.4-0.6c4.3,0,6.4,2.3,6.4,7.2c0,5.1-2.2,7.8-6.7,7.8
		c-2,0-3.8-0.2-5.5-0.5L167.1,67.4z M215.8,87c-1.2,0.2-2.5,0.4-3.8,0.4c-4.8,0-7.4-2.6-7.4-7.8c0-4.7,2.3-7.2,7.4-7.2
		c1.4,0,2.6,0.1,3.8,0.4v1.3c-1.3-0.2-2.5-0.4-3.6-0.4c-3.8,0-5.8,1.9-5.8,5.9c0,4.3,1.9,6.4,5.8,6.4c1.2,0,2.3-0.1,3.6-0.4V87z
		 M232.8,86.4c3.5,0,5.2-2.1,5.2-6.3s-1.7-6.2-5.2-6.2s-5.2,2-5.2,6.2C227.6,84.2,229.4,86.4,232.8,86.4 M226.2,80.1
		c0-4.9,2.2-7.7,6.6-7.7c4.4,0,6.6,2.5,6.6,7.7c0,4.9-2.2,7.7-6.6,7.7C228.4,87.5,226.2,85.1,226.2,80.1 M251.1,87.4V72.6h1l0.2,1.9
		c1.8-1.3,3.6-1.9,5.3-1.9c3.5,0,5.2,1.6,5.2,4.6v10.2h-1.5V77.2c0-2.1-1.3-3.3-3.8-3.3c-1.7,0-3.4,0.6-5.1,1.9v11.7H251L251.1,87.4
		z M274.8,70.3h1l0.2,2.3h4.3v1.3h-4.2v9.5c0,1.9,0.6,2.9,2,2.9h2.1v1.3h-2c-2.3,0-3.5-1.4-3.5-3.9L274.8,70.3z M291.2,87.4V72.6
		h1.1l0.2,2.5c1.5-1.6,3.1-2.5,4.7-2.5v1.2c-1.7,0-3.3,0.9-4.5,2.6v11.1L291.2,87.4z M313.6,86.4c3.5,0,5.2-2.1,5.2-6.3
		s-1.7-6.2-5.2-6.2s-5.2,2-5.2,6.2C308.3,84.2,310,86.4,313.6,86.4 M306.8,80.1c0-4.9,2.2-7.7,6.6-7.7s6.6,2.5,6.6,7.7
		c0,4.9-2.2,7.7-6.6,7.7C309.2,87.5,306.8,85.1,306.8,80.1 M333.2,87.4h-1.5V67.3h1.5V87.4z M361.6,85.3c1.5,0.5,2.8,0.7,3.9,0.7
		c3.7,0,5.5-2.1,5.5-6.3c0-3.7-1.8-5.7-5.5-5.7c-1.3,0-2.6,0.1-3.9,0.3V85.3z M360.2,73.1c1.6-0.4,3.5-0.5,5.4-0.5
		c4.6,0,6.8,2.3,6.8,6.9c0,5.2-2.2,7.9-6.8,7.9c-1.2,0-2.5-0.2-3.9-0.6v6.1h-1.5V73.1z M388.9,80.1c-2.8,0-4.2,1-4.2,3
		c0,1.9,1.2,2.9,3.5,2.9c1.7,0,3.4-0.4,4.9-1.5v-4.1C391.5,80.2,390.1,80.1,388.9,80.1 M383.2,83.3c0-2.9,1.9-4.4,5.7-4.4
		c1.4,0,2.7,0.1,4.3,0.2v-1.8c0-2.2-1.4-3.4-4.1-3.4c-1.6,0-3.2,0.2-4.6,0.6v-1.4c1.6-0.4,3.1-0.6,4.6-0.6c3.7,0,5.5,1.6,5.5,4.6
		v10.2h-0.9l-0.3-1.5c-1.8,1.1-3.5,1.5-5.2,1.5C384.8,87.4,383.2,86.1,383.2,83.3 M406.6,87.4V72.6h1l0.2,1.9
		c1.8-1.3,3.6-1.9,5.3-1.9c3.5,0,5.2,1.6,5.2,4.6v10.2h-1.5V77.2c0-2.1-1.3-3.3-3.8-3.3c-1.7,0-3.4,0.6-5.1,1.9v11.7L406.6,87.4z
		 M431.2,79h9.6c-0.1-3.4-1.6-5.2-4.5-5.2C433,73.9,431.4,75.6,431.2,79 M436.3,72.6c3.9,0,5.9,2.2,5.9,6.6c0,0.3,0,0.6,0,1h-10.9
		c0,3.8,2,5.8,5.9,5.8c1.6,0,3.1-0.2,4.3-0.6v1.3c-1.3,0.4-2.7,0.6-4.3,0.6c-4.8,0-7.5-2.5-7.5-7.7C429.8,74.9,432,72.6,436.3,72.6
		 M455.3,87.4h-1.5V67.3h1.5V87.4z"/>
	<path class="st1" d="M139.8,43.9V27.3c0-2-0.7-3.3-2.3-4c-1.5-0.6-3.8-1.2-6.9-1.2h-7.1v26.5h6.8c3.6,0,6.1-0.2,7.6-0.7
		C139.1,47.3,139.8,45.9,139.8,43.9 M149.2,27.5V44c0,4.5-1.4,7.8-4,9.3c-2.7,1.6-7.7,2.4-14.5,2.4H114V15.1h16.6
		c6.6,0,11.4,0.7,14.3,2.6C147.8,19.4,149.2,22.7,149.2,27.5 M165.8,55.6h-8.9V25.5h8.9V55.6z M165.8,21.9h-8.9v-7.2h8.9V21.9z
		 M193.1,32.3H190c-2.4,0-4.2,0.3-5.5,1.2c-1.3,0.7-1.9,2.1-1.9,3.9v18.2h-8.9V25.5h8.4v5.2c0-1.5,0.9-2.8,2.4-4
		c1.6-1.2,3.4-1.9,5-1.9h3.2L193.1,32.3z M216.7,37.8v-4.3c0-0.9-0.3-1.6-1.2-2.2c-0.6-0.4-2.1-0.7-3.9-0.7c-2.1,0-3.6,0.2-4.3,0.7
		c-0.6,0.4-1.2,1.3-1.2,2.2v4.3H216.7z M225.2,42.9h-18.9v2.7c0,1.7,0.5,2.9,1.7,3.7c1.2,0.9,3.4,1.2,6.5,1.2c2.9,0,6.2-0.4,9.9-1.3
		v5.9c-3.7,0.7-7.7,1.2-11.4,1.2c-10.4,0-15.4-3.3-15.4-9.9V35.6c0-3.8,1.2-6.6,3.6-8.3c2.4-1.6,6.1-2.4,10.9-2.4
		c4.5,0,8,0.7,10.1,2.3c2.2,1.5,3.3,4.3,3.3,8.4L225.2,42.9z M256.2,55.2c-3.5,0.6-6.8,1-10,1c-1.5,0-2.7,0-3.6-0.1
		c-0.9,0-2-0.1-3.4-0.3s-2.4-0.4-3.3-0.9c-0.7-0.4-1.6-1.1-2.4-1.7c-0.7-0.6-1.4-1.7-1.9-2.9c-0.3-1.2-0.5-2.7-0.5-4.3V35.8
		c0-1.5,0.1-2.8,0.4-3.9c0.3-1.2,0.7-2.1,1.3-2.8c0.4-0.7,1.2-1.4,2.1-2c0.9-0.5,1.7-0.9,2.4-1.2c0.7-0.2,1.7-0.4,3-0.6
		c1.3-0.1,2.2-0.2,3-0.2c0.7,0,1.9,0,3.3,0c2.2,0,5,0.3,8.9,1.2v6c-4.2-1.1-7.2-1.5-9.7-1.5c-4,0-6.1,1.4-6.1,4.2v10.8
		c0,3.1,2.2,4.7,6.6,4.7c2.1,0,5.1-0.4,9.4-1.4L256.2,55.2z M280.9,55.9c-1.7,0.2-3.4,0.3-4.8,0.3s-2.6,0-3.6-0.1s-2.1-0.3-3.2-0.6
		c-1-0.3-2-0.9-2.7-1.5c-0.6-0.6-1.3-1.5-1.7-2.7c-0.4-1.2-0.6-2.6-0.6-4.2v-16h-6v-5.6h6v-8.9h8.9v8.7h8.1v5.6h-8.1v14.2
		c0,2.1,0.3,3.5,0.9,4.2s2,1,3.9,1c0.6,0,1.7-0.1,3.2-0.3L280.9,55.9z"/>
	<path class="st1" d="M310.8,39.6l-4.5-14.2h-0.2l-4.6,14.2H310.8z M325.1,55.6H316l-3.3-10h-13.5l-3.3,10h-8.6l13.6-37.8h10.7
		L325.1,55.6z M348,47.1V35.7c0-1.4-0.3-2.4-1.1-2.9c-0.7-0.5-2.3-0.7-4.6-0.7c-2.5,0-4,0.2-4.6,0.7c-0.5,0.5-0.8,1.6-0.8,3.3v10.7
		c0,1.5,0.3,2.6,0.8,3.2s2,0.8,4.2,0.8c2.7,0,4.3-0.2,5.1-0.7C347.5,49.5,348,48.6,348,47.1 M356.1,55.6h-8v-3.2
		c-0.6,1.1-1.2,1.9-1.7,2.3c-0.5,0.4-1.3,0.8-2.4,1.1c-1.1,0.2-2.5,0.3-4.4,0.3c-4.6,0-7.8-0.6-9.3-1.9c-1.4-1.2-2.2-3.8-2.2-8V35.3
		c0-3.2,0.8-5.4,2.6-6.6c1.7-1.2,4.4-1.9,8.3-1.9c2.7,0,4.5,0.2,5.7,0.7s2.1,1.5,3.1,3V14.9h8.3V55.6z M406.1,55.6h-8.3V36.1
		c0-1.7-0.2-2.8-0.5-3.3c-0.4-0.4-1.5-0.7-3.3-0.7c-2.3,0-3.6,0.2-4.1,0.7c-0.5,0.4-0.7,1.5-0.7,3.3v19.5h-8.3V36.1
		c0-1.7-0.2-2.8-0.5-3.3c-0.4-0.4-1.5-0.7-3.3-0.7c-2.3,0-3.6,0.2-4.1,0.7c-0.5,0.4-0.7,1.5-0.7,3.3v19.5H364V27.4h8.3v3.4
		c0.5-2.6,3.3-4,8.1-4c2.6,0,4.5,0.3,5.9,1.1c1.3,0.6,2.2,1.7,2.6,3.2c0.4-1.4,1.3-2.5,2.6-3.2c1.3-0.6,3.3-1,6-1c3.6,0,6,0.6,7.2,2
		c1.2,1.3,1.7,3.4,1.7,6.1L406.1,55.6z M422,55.6h-8.3V27.4h8.3V55.6z M422,24.1h-8.3v-6.9h8.3V24.1z M456,55.6h-8.3V36.1
		c0-1.5-0.2-2.6-0.7-3.2c-0.5-0.5-1.7-0.7-3.6-0.7c-2.4,0-3.9,0.2-4.4,0.7c-0.6,0.5-0.9,1.5-0.9,3.2v19.5h-8.3V27.4h8.2v3.4
		c0.6-2.6,3.6-4,8.7-4c3.6,0,6.1,0.6,7.5,2c1.3,1.3,2.1,3.4,2.1,6.1L456,55.6z"/>
</g>
<g>
	<g>
		<g>
			<g>
				<polygon class="st2" points="90.9,51.9 90.9,51.9 40.6,3 26.6,17.4 62.6,52.3 27.7,88.1 42,102.1 				"/>
			</g>
			<g>
				<polygon class="st3" points="87.8,48.9 87.8,48.9 37.6,0 23.5,14.4 59.5,49.3 24.6,85.2 38.9,99.2 				"/>
			</g>
		</g>
		<line class="st4" x1="43.9" y1="103.7" x2="93" y2="53.4"/>
	</g>
	<g>
		<g>
			
				<rect x="9.9" y="60.2" transform="matrix(0.6974 -0.7167 0.7167 0.6974 -35.6671 40.2486)" class="st2" width="39.9" height="4.2"/>
			
				<rect x="1.2" y="43.9" transform="matrix(0.6974 -0.7167 0.7167 0.6974 -32.2372 31.4629)" class="st3" width="39.9" height="20"/>
		</g>
		
			<rect x="5.8" y="26.1" transform="matrix(0.6974 -0.7167 0.7167 0.6974 -20.2407 21.8994)" class="st3" width="20.1" height="17.5"/>
	</g>
</g>
</svg>
